<?xml version="1.0" encoding="UTF-8"?>
<svg width="158px" height="80px" viewBox="0 0 158 80" version="1.1" xmlns="http://www.w3.org/2000/svg" xmlns:xlink="http://www.w3.org/1999/xlink">
    <!-- Generator: Sketch 44.1 (41455) - http://www.bohemiancoding.com/sketch -->
    <title>dropg</title>
    <desc>Created with Sketch.</desc>
    <defs></defs>
    <g id="Page-1" stroke="none" stroke-width="1" fill="none" fill-rule="evenodd">
        <g id="Desktop" transform="translate(-917.000000, -245.000000)">
            <g id="dropg" transform="translate(917.000000, 245.000000)">
                <g id="1st-DropGD" transform="translate(0.000000, 60.000000)">
                    <path d="M29.5,10.5 L20.5,10.5" id="Line" stroke="#D5D3D3" stroke-linecap="square"></path>
                    <circle id="1stOVAL-E" fill="#D5D3D3" cx="10" cy="10" r="10"></circle>
                    <path d="M7,5 L9.665,5 C10.5750046,5 11.2856641,5.11266554 11.797,5.338 C12.3083359,5.56333446 12.6701656,5.91649759 12.8825,6.3975 C13.0948344,6.8785024 13.201,7.52199597 13.201,8.328 L13.201,12.15 C13.201,12.9646707 13.0948344,13.6146642 12.8825,14.1 C12.6701656,14.5853358 12.3105025,14.9449988 11.8035,15.179 C11.2964975,15.4130012 10.5923378,15.53 9.691,15.53 L7,15.53 L7,5 Z M9.691,13.918 C10.0290017,13.918 10.2781659,13.8681672 10.4385,13.7685 C10.5988341,13.6688328 10.7006664,13.5258343 10.744,13.3395 C10.7873335,13.1531657 10.809,12.8780018 10.809,12.514 L10.809,7.925 C10.809,7.58699831 10.7851669,7.32916755 10.7375,7.1515 C10.6898331,6.97383244 10.5858341,6.8416671 10.4255,6.755 C10.2651659,6.6683329 10.0160017,6.625 9.678,6.625 L9.327,6.625 L9.327,13.918 L9.691,13.918 Z" id="D" fill="#000000"></path>
                </g>
                <g id="2st-DropGG" transform="translate(0.000000, 30.000000)">
                    <path d="M26.8,10 L20,10" id="Line" stroke="#D5D3D3" stroke-linecap="square"></path>
                    <circle id="2stOVAL-A" fill="#D5D3D3" cx="10" cy="10" r="10"></circle>
                    <path d="M7.663,14.88 C7.22099779,14.2473302 7,13.3503391 7,12.189 L7,8.653 C7,7.46566073 7.24049759,6.56000312 7.7215,5.936 C8.20250241,5.31199688 9.01499428,5 10.159,5 C11.2596722,5 12.0483309,5.26866398 12.525,5.806 C13.001669,6.34333602 13.24,7.10166177 13.24,8.081 L13.24,8.757 L10.965,8.757 L10.965,7.899 C10.965,7.48299792 10.9173338,7.16883439 10.822,6.9565 C10.7266662,6.7441656 10.514335,6.638 10.185,6.638 C9.84699831,6.638 9.62816716,6.75499883 9.5285,6.989 C9.42883283,7.22300117 9.379,7.54799792 9.379,7.964 L9.379,12.839 C9.379,13.2550021 9.44183271,13.5821655 9.5675,13.8205 C9.69316729,14.0588345 9.92066502,14.178 10.25,14.178 C10.8566697,14.178 11.16,13.7230045 11.16,12.813 L11.16,11.578 L10.211,11.578 L10.211,10.213 L13.253,10.213 L13.253,15.673 L11.719,15.673 L11.589,14.802 C11.259665,15.4866701 10.692004,15.829 9.886,15.829 C8.8459948,15.829 8.10500221,15.5126698 7.663,14.88 Z" id="G" fill="#000000"></path>
                </g>
                <g id="3st-DropGD">
                    <path d="M25.3,10 L20,10" id="Line" stroke="#D5D3D3" stroke-linecap="square"></path>
                    <circle id="3stOVAL-D" fill="#D5D3D3" cx="10" cy="10" r="10"></circle>
                    <path d="M7,5 L9.665,5 C10.5750046,5 11.2856641,5.11266554 11.797,5.338 C12.3083359,5.56333446 12.6701656,5.9164976 12.8825,6.3975 C13.0948344,6.87850241 13.201,7.52199597 13.201,8.328 L13.201,12.15 C13.201,12.9646707 13.0948344,13.6146642 12.8825,14.1 C12.6701656,14.5853358 12.3105025,14.9449988 11.8035,15.179 C11.2964975,15.4130012 10.5923378,15.53 9.691,15.53 L7,15.53 L7,5 Z M9.691,13.918 C10.0290017,13.918 10.2781659,13.8681672 10.4385,13.7685 C10.5988341,13.6688328 10.7006664,13.5258343 10.744,13.3395 C10.7873335,13.1531657 10.809,12.8780018 10.809,12.514 L10.809,7.925 C10.809,7.58699831 10.7851669,7.32916755 10.7375,7.1515 C10.6898331,6.97383244 10.5858341,6.8416671 10.4255,6.755 C10.2651659,6.6683329 10.0160017,6.625 9.678,6.625 L9.327,6.625 L9.327,13.918 L9.691,13.918 Z" id="D" fill="#000000"></path>
                </g>
                <g id="4st-DropGC" transform="translate(133.000000, 0.000000)">
                    <path d="M5,10 L0,10" id="Line" stroke="#D5D3D3" stroke-linecap="square"></path>
                    <circle id="4stOVAL-G" fill="#D5D3D3" cx="15" cy="10" r="10"></circle>
                    <path d="M12.7215,14.9255 C12.2404976,14.3231637 12,13.454339 12,12.319 L12,8.523 C12,7.36166086 12.238331,6.48416964 12.715,5.8905 C13.191669,5.29683037 14.0063276,5 15.159,5 C16.2596722,5 17.0396644,5.26433069 17.499,5.793 C17.9583356,6.32166931 18.188,7.07132848 18.188,8.042 L18.188,8.952 L15.913,8.952 L15.913,7.899 C15.913,7.49166463 15.8696671,7.17966775 15.783,6.963 C15.6963329,6.74633225 15.488335,6.638 15.159,6.638 C14.829665,6.638 14.6130005,6.75283218 14.509,6.9825 C14.4049995,7.21216782 14.353,7.53066463 14.353,7.938 L14.353,12.891 C14.353,13.3070021 14.4071661,13.6254989 14.5155,13.8465 C14.6238339,14.0675011 14.8383317,14.178 15.159,14.178 C15.4796683,14.178 15.6854995,14.0675011 15.7765,13.8465 C15.8675005,13.6254989 15.913,13.3070021 15.913,12.891 L15.913,11.786 L18.188,11.786 L18.188,12.696 C18.188,13.6840049 17.9583356,14.4531639 17.499,15.0035 C17.0396644,15.5538361 16.2596722,15.829 15.159,15.829 C14.0149943,15.829 13.2025024,15.5278363 12.7215,14.9255 Z" id="C" fill="#000000"></path>
                </g>
                <g id="5st-DropGB" transform="translate(132.000000, 30.000000)">
                    <path d="M6,10 L0,10" id="Line" stroke="#D5D3D3" stroke-linecap="square"></path>
                    <circle id="5stOVAL-B" fill="#D5D3D3" cx="16" cy="10" r="10"></circle>
                    <path d="M13,5 L15.743,5 C16.7916719,5 17.6128304,5.18633147 18.2065,5.559 C18.8001696,5.93166853 19.097,6.6379948 19.097,7.678 C19.097,8.95200637 18.5813385,9.68433238 17.55,9.875 C18.1740031,9.95300039 18.6419984,10.2129978 18.954,10.655 C19.2660016,11.0970022 19.422,11.7036628 19.422,12.475 C19.422,14.5116768 18.360344,15.53 16.237,15.53 L13,15.53 L13,5 Z M15.782,9.212 C16.2760025,9.212 16.6118324,9.09933446 16.7895,8.874 C16.9671676,8.64866554 17.056,8.29766905 17.056,7.821 C17.056,7.40499792 16.9433345,7.0908344 16.718,6.8785 C16.4926655,6.6661656 16.1633355,6.56 15.73,6.56 L15.327,6.56 L15.327,9.212 L15.782,9.212 Z M15.821,13.905 C16.3150025,13.905 16.6638323,13.7815012 16.8675,13.5345 C17.0711677,13.2874988 17.173,12.8996693 17.173,12.371 C17.173,11.772997 17.0711677,11.3526679 16.8675,11.11 C16.6638323,10.8673321 16.3106692,10.746 15.808,10.746 L15.327,10.746 L15.327,13.905 L15.821,13.905 Z" id="B" fill="#000000"></path>
                </g>
                <g id="6st-DropGE" transform="translate(129.000000, 60.000000)">
                    <path d="M9,10 L0,10" id="Line" stroke="#D5D3D3" stroke-linecap="square"></path>
                    <circle id="6stOVAL-E" fill="#D5D3D3" cx="19" cy="10" r="10"></circle>
                    <polygon id="E" fill="#000000" points="17 5 21.732 5 21.732 6.586 19.327 6.586 19.327 9.199 21.16 9.199 21.16 10.811 19.327 10.811 19.327 13.957 21.758 13.957 21.758 15.53 17 15.53"></polygon>
                </g>
            </g>
        </g>
    </g>
</svg>