<?xml version="1.0" encoding="UTF-8"?>
<svg width="158px" height="80px" viewBox="0 0 158 80" version="1.1" xmlns="http://www.w3.org/2000/svg" xmlns:xlink="http://www.w3.org/1999/xlink">
    <!-- Generator: Sketch 44.1 (41455) - http://www.bohemiancoding.com/sketch -->
    <title>halfstep</title>
    <desc>Created with Sketch.</desc>
    <defs></defs>
    <g id="Page-1" stroke="none" stroke-width="1" fill="none" fill-rule="evenodd">
        <g id="Desktop" transform="translate(-916.000000, -595.000000)">
            <g id="halfstep" transform="translate(916.000000, 595.000000)">
                <g id="1st-HalfstepE" transform="translate(0.000000, 60.000000)">
                    <path d="M29.5,10.5 L20.5,10.5" id="Line" stroke="#D5D3D3" stroke-linecap="square"></path>
                    <circle id="1stOVAL-E" fill="#D5D3D3" cx="10" cy="10" r="10"></circle>
                    <polygon id="E" fill="#000000" points="8 5 12.732 5 12.732 6.586 10.327 6.586 10.327 9.199 12.16 9.199 12.16 10.811 10.327 10.811 10.327 13.957 12.758 13.957 12.758 15.53 8 15.53"></polygon>
                </g>
                <g id="2st-HalfstepA" transform="translate(0.000000, 30.000000)">
                    <path d="M26.8,10 L20,10" id="Line" stroke="#D5D3D3" stroke-linecap="square"></path>
                    <circle id="2stOVAL-A" fill="#D5D3D3" cx="10" cy="10" r="10"></circle>
                    <path d="M8.989,5 L11.641,5 L13.604,15.53 L11.459,15.53 L11.108,13.307 L9.561,13.307 L9.197,15.53 L7,15.53 L8.989,5 Z M10.887,11.916 L10.328,7.808 L9.769,11.916 L10.887,11.916 Z" id="A" fill="#000000"></path>
                </g>
                <g id="3st-HalfstepD">
                    <path d="M25.3,10 L20,10" id="Line" stroke="#D5D3D3" stroke-linecap="square"></path>
                    <circle id="3stOVAL-D" fill="#D5D3D3" cx="10" cy="10" r="10"></circle>
                    <path d="M7,5 L9.665,5 C10.5750046,5 11.2856641,5.11266554 11.797,5.338 C12.3083359,5.56333446 12.6701656,5.9164976 12.8825,6.3975 C13.0948344,6.8785024 13.201,7.52199597 13.201,8.328 L13.201,12.15 C13.201,12.9646707 13.0948344,13.6146642 12.8825,14.1 C12.6701656,14.5853358 12.3105025,14.9449988 11.8035,15.179 C11.2964975,15.4130012 10.5923378,15.53 9.691,15.53 L7,15.53 L7,5 Z M9.691,13.918 C10.0290017,13.918 10.2781659,13.8681672 10.4385,13.7685 C10.5988341,13.6688328 10.7006664,13.5258343 10.744,13.3395 C10.7873335,13.1531657 10.809,12.8780018 10.809,12.514 L10.809,7.925 C10.809,7.58699831 10.7851669,7.32916756 10.7375,7.1515 C10.6898331,6.97383244 10.5858341,6.8416671 10.4255,6.755 C10.2651659,6.6683329 10.0160017,6.625 9.678,6.625 L9.327,6.625 L9.327,13.918 L9.691,13.918 Z" id="D" fill="#000000"></path>
                </g>
                <g id="4st-HalfstepG" transform="translate(133.000000, 0.000000)">
                    <path d="M5,10 L0,10" id="Line" stroke="#D5D3D3" stroke-linecap="square"></path>
                    <circle id="4stOVAL-G" fill="#D5D3D3" cx="15" cy="10" r="10"></circle>
                    <path d="M12.663,14.88 C12.2209978,14.2473302 12,13.3503391 12,12.189 L12,8.653 C12,7.46566073 12.2404976,6.56000312 12.7215,5.936 C13.2025024,5.31199688 14.0149943,5 15.159,5 C16.2596722,5 17.048331,5.26866398 17.525,5.806 C18.0016691,6.34333602 18.24,7.10166177 18.24,8.081 L18.24,8.757 L15.965,8.757 L15.965,7.899 C15.965,7.48299792 15.9173338,7.16883439 15.822,6.9565 C15.7266662,6.74416561 15.514335,6.638 15.185,6.638 C14.8469983,6.638 14.6281672,6.75499883 14.5285,6.989 C14.4288328,7.22300117 14.379,7.54799792 14.379,7.964 L14.379,12.839 C14.379,13.2550021 14.4418327,13.5821655 14.5675,13.8205 C14.6931673,14.0588345 14.920665,14.178 15.25,14.178 C15.8566697,14.178 16.16,13.7230046 16.16,12.813 L16.16,11.578 L15.211,11.578 L15.211,10.213 L18.253,10.213 L18.253,15.673 L16.719,15.673 L16.589,14.802 C16.259665,15.4866701 15.692004,15.829 14.886,15.829 C13.8459948,15.829 13.1050022,15.5126698 12.663,14.88 Z" id="G" fill="#000000"></path>
                </g>
                <g id="5st-HalfstepB" transform="translate(132.000000, 30.000000)">
                    <path d="M6,10 L0,10" id="Line" stroke="#D5D3D3" stroke-linecap="square"></path>
                    <circle id="5stOVAL-B" fill="#D5D3D3" cx="16" cy="10" r="10"></circle>
                    <path d="M13,5 L15.743,5 C16.7916719,5 17.6128304,5.18633147 18.2065,5.559 C18.8001696,5.93166853 19.097,6.6379948 19.097,7.678 C19.097,8.95200637 18.5813385,9.68433238 17.55,9.875 C18.1740031,9.95300039 18.6419984,10.2129978 18.954,10.655 C19.2660016,11.0970022 19.422,11.7036628 19.422,12.475 C19.422,14.5116768 18.360344,15.53 16.237,15.53 L13,15.53 L13,5 Z M15.782,9.212 C16.2760025,9.212 16.6118324,9.09933446 16.7895,8.874 C16.9671676,8.64866554 17.056,8.29766905 17.056,7.821 C17.056,7.40499792 16.9433345,7.0908344 16.718,6.8785 C16.4926655,6.6661656 16.1633355,6.56 15.73,6.56 L15.327,6.56 L15.327,9.212 L15.782,9.212 Z M15.821,13.905 C16.3150025,13.905 16.6638323,13.7815012 16.8675,13.5345 C17.0711677,13.2874988 17.173,12.8996693 17.173,12.371 C17.173,11.772997 17.0711677,11.3526679 16.8675,11.11 C16.6638323,10.8673321 16.3106692,10.746 15.808,10.746 L15.327,10.746 L15.327,13.905 L15.821,13.905 Z" id="B" fill="#000000"></path>
                </g>
                <g id="6st-HalfstepE" transform="translate(129.000000, 60.000000)">
                    <path d="M9,10 L0,10" id="Line" stroke="#D5D3D3" stroke-linecap="square"></path>
                    <circle id="6stOVAL-E" fill="#D5D3D3" cx="19" cy="10" r="10"></circle>
                    <polygon id="E" fill="#000000" points="17 5 21.732 5 21.732 6.586 19.327 6.586 19.327 9.199 21.16 9.199 21.16 10.811 19.327 10.811 19.327 13.957 21.758 13.957 21.758 15.53 17 15.53"></polygon>
                </g>
                <path d="M153.712,14.648 L153.712,15 L152.408,15 L152.408,8.52 L153.712,8.52 L153.712,10.712 C153.866667,10.578666 154.026666,10.4760004 154.192,10.404 C154.357334,10.3319996 154.517333,10.296 154.672,10.296 C155.024002,10.296 155.285332,10.4199988 155.456,10.668 C155.626668,10.9160012 155.712,11.2453313 155.712,11.656 L155.712,13.648 C155.712,14.0906689 155.624001,14.4399987 155.448,14.696 C155.271999,14.9520013 155.024002,15.08 154.704,15.08 C154.373332,15.08 154.042668,14.9360014 153.712,14.648 Z M154.328,14.096 C154.381334,13.9999995 154.408,13.8746674 154.408,13.72 L154.408,11.56 C154.408,11.426666 154.381334,11.3133338 154.328,11.22 C154.274666,11.1266662 154.197334,11.08 154.096,11.08 C153.994666,11.08 153.866667,11.1306662 153.712,11.232 L153.712,14.112 C153.829334,14.1973338 153.949333,14.24 154.072,14.24 C154.189334,14.24 154.274666,14.1920005 154.328,14.096 Z" id="b" fill="#000000"></path>
                <path d="M15.712,14.648 L15.712,15 L14.408,15 L14.408,8.52 L15.712,8.52 L15.712,10.712 C15.8666674,10.578666 16.0266658,10.4760004 16.192,10.404 C16.3573342,10.3319996 16.5173326,10.296 16.672,10.296 C17.0240018,10.296 17.2853325,10.4199988 17.456,10.668 C17.6266675,10.9160012 17.712,11.2453313 17.712,11.656 L17.712,13.648 C17.712,14.0906689 17.6240009,14.4399987 17.448,14.696 C17.2719991,14.9520013 17.0240016,15.08 16.704,15.08 C16.3733317,15.08 16.0426683,14.9360014 15.712,14.648 Z M16.328,14.096 C16.3813336,13.9999995 16.408,13.8746674 16.408,13.72 L16.408,11.56 C16.408,11.426666 16.3813336,11.3133338 16.328,11.22 C16.2746664,11.1266662 16.1973338,11.08 16.096,11.08 C15.9946662,11.08 15.8666674,11.1306662 15.712,11.232 L15.712,14.112 C15.8293339,14.1973338 15.9493327,14.24 16.072,14.24 C16.1893339,14.24 16.2746664,14.1920005 16.328,14.096 Z" id="b" fill="#000000"></path>
                <path d="M15.712,44.648 L15.712,45 L14.408,45 L14.408,38.52 L15.712,38.52 L15.712,40.712 C15.8666674,40.578666 16.0266658,40.4760004 16.192,40.404 C16.3573342,40.3319996 16.5173326,40.296 16.672,40.296 C17.0240018,40.296 17.2853325,40.4199988 17.456,40.668 C17.6266675,40.9160012 17.712,41.2453313 17.712,41.656 L17.712,43.648 C17.712,44.0906689 17.6240009,44.4399987 17.448,44.696 C17.2719991,44.9520013 17.0240016,45.08 16.704,45.08 C16.3733317,45.08 16.0426683,44.9360014 15.712,44.648 Z M16.328,44.096 C16.3813336,43.9999995 16.408,43.8746674 16.408,43.72 L16.408,41.56 C16.408,41.426666 16.3813336,41.3133338 16.328,41.22 C16.2746664,41.1266662 16.1973338,41.08 16.096,41.08 C15.9946662,41.08 15.8666674,41.1306662 15.712,41.232 L15.712,44.112 C15.8293339,44.1973338 15.9493327,44.24 16.072,44.24 C16.1893339,44.24 16.2746664,44.1920005 16.328,44.096 Z" id="b" fill="#000000"></path>
                <path d="M15.712,74.648 L15.712,75 L14.408,75 L14.408,68.52 L15.712,68.52 L15.712,70.712 C15.8666674,70.578666 16.0266658,70.4760004 16.192,70.404 C16.3573342,70.3319996 16.5173326,70.296 16.672,70.296 C17.0240018,70.296 17.2853325,70.4199988 17.456,70.668 C17.6266675,70.9160012 17.712,71.2453313 17.712,71.656 L17.712,73.648 C17.712,74.0906689 17.6240009,74.4399987 17.448,74.696 C17.2719991,74.9520013 17.0240016,75.08 16.704,75.08 C16.3733317,75.08 16.0426683,74.9360014 15.712,74.648 Z M16.328,74.096 C16.3813336,73.9999995 16.408,73.8746674 16.408,73.72 L16.408,71.56 C16.408,71.426666 16.3813336,71.3133338 16.328,71.22 C16.2746664,71.1266662 16.1973338,71.08 16.096,71.08 C15.9946662,71.08 15.8666674,71.1306662 15.712,71.232 L15.712,74.112 C15.8293339,74.1973338 15.9493327,74.24 16.072,74.24 C16.1893339,74.24 16.2746664,74.1920005 16.328,74.096 Z" id="b" fill="#000000"></path>
                <path d="M153.712,44.648 L153.712,45 L152.408,45 L152.408,38.52 L153.712,38.52 L153.712,40.712 C153.866667,40.578666 154.026666,40.4760004 154.192,40.404 C154.357334,40.3319996 154.517333,40.296 154.672,40.296 C155.024002,40.296 155.285332,40.4199988 155.456,40.668 C155.626668,40.9160012 155.712,41.2453313 155.712,41.656 L155.712,43.648 C155.712,44.0906689 155.624001,44.4399987 155.448,44.696 C155.271999,44.9520013 155.024002,45.08 154.704,45.08 C154.373332,45.08 154.042668,44.9360014 153.712,44.648 Z M154.328,44.096 C154.381334,43.9999995 154.408,43.8746674 154.408,43.72 L154.408,41.56 C154.408,41.426666 154.381334,41.3133338 154.328,41.22 C154.274666,41.1266662 154.197334,41.08 154.096,41.08 C153.994666,41.08 153.866667,41.1306662 153.712,41.232 L153.712,44.112 C153.829334,44.1973338 153.949333,44.24 154.072,44.24 C154.189334,44.24 154.274666,44.1920005 154.328,44.096 Z" id="b" fill="#000000"></path>
                <path d="M153.712,74.648 L153.712,75 L152.408,75 L152.408,68.52 L153.712,68.52 L153.712,70.712 C153.866667,70.578666 154.026666,70.4760004 154.192,70.404 C154.357334,70.3319996 154.517333,70.296 154.672,70.296 C155.024002,70.296 155.285332,70.4199988 155.456,70.668 C155.626668,70.9160012 155.712,71.2453313 155.712,71.656 L155.712,73.648 C155.712,74.0906689 155.624001,74.4399987 155.448,74.696 C155.271999,74.9520013 155.024002,75.08 154.704,75.08 C154.373332,75.08 154.042668,74.9360014 153.712,74.648 Z M154.328,74.096 C154.381334,73.9999995 154.408,73.8746674 154.408,73.72 L154.408,71.56 C154.408,71.426666 154.381334,71.3133338 154.328,71.22 C154.274666,71.1266662 154.197334,71.08 154.096,71.08 C153.994666,71.08 153.866667,71.1306662 153.712,71.232 L153.712,74.112 C153.829334,74.1973338 153.949333,74.24 154.072,74.24 C154.189334,74.24 154.274666,74.1920005 154.328,74.096 Z" id="b" fill="#000000"></path>
            </g>
        </g>
    </g>
</svg>