<?xml version="1.0" encoding="UTF-8"?>
<svg width="158px" height="80px" viewBox="0 0 158 80" version="1.1" xmlns="http://www.w3.org/2000/svg" xmlns:xlink="http://www.w3.org/1999/xlink">
    <!-- Generator: Sketch 44.1 (41455) - http://www.bohemiancoding.com/sketch -->
    <title>openc</title>
    <desc>Created with Sketch.</desc>
    <defs></defs>
    <g id="Page-1" stroke="none" stroke-width="1" fill="none" fill-rule="evenodd">
        <g id="Desktop" transform="translate(-196.000000, -595.000000)">
            <g id="openc" transform="translate(196.000000, 595.000000)">
                <g id="1st-OpenCC" transform="translate(0.000000, 60.000000)">
                    <path d="M29.5,10.5 L20.5,10.5" id="Line-Copy-3" stroke="#D5D3D3" stroke-linecap="square"></path>
                    <circle id="oneOPENC" fill="#D5D3D3" cx="10" cy="10" r="10"></circle>
                    <path d="M7.7215,14.9255 C7.24049759,14.3231637 7,13.454339 7,12.319 L7,8.523 C7,7.36166086 7.23833095,6.48416963 7.715,5.8905 C8.19166905,5.29683037 9.00632757,5 10.159,5 C11.2596722,5 12.0396644,5.26433069 12.499,5.793 C12.9583356,6.32166931 13.188,7.07132848 13.188,8.042 L13.188,8.952 L10.913,8.952 L10.913,7.899 C10.913,7.49166463 10.8696671,7.17966775 10.783,6.963 C10.6963329,6.74633225 10.488335,6.638 10.159,6.638 C9.82966502,6.638 9.61300052,6.75283218 9.509,6.9825 C9.40499948,7.21216782 9.353,7.53066463 9.353,7.938 L9.353,12.891 C9.353,13.3070021 9.40716612,13.6254989 9.5155,13.8465 C9.62383387,14.0675011 9.83833173,14.178 10.159,14.178 C10.4796683,14.178 10.6854995,14.0675011 10.7765,13.8465 C10.8675005,13.6254989 10.913,13.3070021 10.913,12.891 L10.913,11.786 L13.188,11.786 L13.188,12.696 C13.188,13.6840049 12.9583356,14.4531639 12.499,15.0035 C12.0396644,15.5538361 11.2596722,15.829 10.159,15.829 C9.01499428,15.829 8.2025024,15.5278363 7.7215,14.9255 Z" id="C" fill="#000000"></path>
                </g>
                <g id="2st-OpenCG" transform="translate(0.000000, 30.000000)">
                    <path d="M26.8,10 L20,10" id="Line-Copy-2" stroke="#D5D3D3" stroke-linecap="square"></path>
                    <circle id="2stOVAL-A-Copy" fill="#D5D3D3" cx="10" cy="10" r="10"></circle>
                    <path d="M7.663,14.88 C7.22099779,14.2473302 7,13.3503391 7,12.189 L7,8.653 C7,7.46566073 7.24049759,6.56000312 7.7215,5.936 C8.2025024,5.31199688 9.01499428,5 10.159,5 C11.2596722,5 12.048331,5.26866398 12.525,5.806 C13.0016691,6.34333602 13.24,7.10166177 13.24,8.081 L13.24,8.757 L10.965,8.757 L10.965,7.899 C10.965,7.48299792 10.9173338,7.16883439 10.822,6.9565 C10.7266662,6.74416561 10.514335,6.638 10.185,6.638 C9.84699831,6.638 9.62816717,6.75499883 9.5285,6.989 C9.42883284,7.22300117 9.379,7.54799792 9.379,7.964 L9.379,12.839 C9.379,13.2550021 9.4418327,13.5821655 9.5675,13.8205 C9.69316729,14.0588345 9.92066502,14.178 10.25,14.178 C10.8566697,14.178 11.16,13.7230046 11.16,12.813 L11.16,11.578 L10.211,11.578 L10.211,10.213 L13.253,10.213 L13.253,15.673 L11.719,15.673 L11.589,14.802 C11.259665,15.4866701 10.692004,15.829 9.886,15.829 C8.8459948,15.829 8.10500221,15.5126698 7.663,14.88 Z" id="G" fill="#000000"></path>
                </g>
                <g id="3st-OpenCC">
                    <path d="M25.3,10 L20,10" id="Line-Copy" stroke="#D5D3D3" stroke-linecap="square"></path>
                    <circle id="3stOVAL-D-Copy" fill="#D5D3D3" cx="10" cy="10" r="10"></circle>
                    <path d="M7.7215,14.9255 C7.24049759,14.3231637 7,13.454339 7,12.319 L7,8.523 C7,7.36166086 7.23833095,6.48416963 7.715,5.8905 C8.19166905,5.29683037 9.00632757,5 10.159,5 C11.2596722,5 12.0396644,5.26433069 12.499,5.793 C12.9583356,6.32166931 13.188,7.07132848 13.188,8.042 L13.188,8.952 L10.913,8.952 L10.913,7.899 C10.913,7.49166463 10.8696671,7.17966775 10.783,6.963 C10.6963329,6.74633225 10.488335,6.638 10.159,6.638 C9.82966502,6.638 9.61300052,6.75283218 9.509,6.9825 C9.40499948,7.21216782 9.353,7.53066463 9.353,7.938 L9.353,12.891 C9.353,13.3070021 9.40716612,13.6254989 9.5155,13.8465 C9.62383387,14.0675011 9.83833173,14.178 10.159,14.178 C10.4796683,14.178 10.6854995,14.0675011 10.7765,13.8465 C10.8675005,13.6254989 10.913,13.3070021 10.913,12.891 L10.913,11.786 L13.188,11.786 L13.188,12.696 C13.188,13.6840049 12.9583356,14.4531639 12.499,15.0035 C12.0396644,15.5538361 11.2596722,15.829 10.159,15.829 C9.01499428,15.829 8.2025024,15.5278363 7.7215,14.9255 Z" id="C" fill="#000000"></path>
                </g>
                <g id="4st-OpenCG" transform="translate(133.000000, 0.000000)">
                    <path d="M5,10 L0,10" id="Line-Copy-6" stroke="#D5D3D3" stroke-linecap="square"></path>
                    <circle id="4stOVAL-G-Copy" fill="#D5D3D3" cx="15" cy="10" r="10"></circle>
                    <path d="M12.663,14.88 C12.2209978,14.2473302 12,13.3503391 12,12.189 L12,8.653 C12,7.46566073 12.2404976,6.56000312 12.7215,5.936 C13.2025024,5.31199688 14.0149943,5 15.159,5 C16.2596722,5 17.0483309,5.26866398 17.525,5.806 C18.001669,6.34333602 18.24,7.10166177 18.24,8.081 L18.24,8.757 L15.965,8.757 L15.965,7.899 C15.965,7.48299792 15.9173338,7.16883439 15.822,6.9565 C15.7266662,6.74416561 15.514335,6.638 15.185,6.638 C14.8469983,6.638 14.6281672,6.75499883 14.5285,6.989 C14.4288328,7.22300117 14.379,7.54799792 14.379,7.964 L14.379,12.839 C14.379,13.2550021 14.4418327,13.5821655 14.5675,13.8205 C14.6931673,14.0588345 14.920665,14.178 15.25,14.178 C15.8566697,14.178 16.16,13.7230046 16.16,12.813 L16.16,11.578 L15.211,11.578 L15.211,10.213 L18.253,10.213 L18.253,15.673 L16.719,15.673 L16.589,14.802 C16.259665,15.4866701 15.692004,15.829 14.886,15.829 C13.8459948,15.829 13.1050022,15.5126698 12.663,14.88 Z" id="G" fill="#000000"></path>
                </g>
                <g id="5st-OpenCC" transform="translate(132.000000, 30.000000)">
                    <path d="M6,10 L0,10" id="Line-Copy-5" stroke="#D5D3D3" stroke-linecap="square"></path>
                    <circle id="5stOVAL-B-Copy" fill="#D5D3D3" cx="16" cy="10" r="10"></circle>
                    <path d="M13.7215,14.9255 C13.2404976,14.3231637 13,13.454339 13,12.319 L13,8.523 C13,7.36166086 13.238331,6.48416963 13.715,5.8905 C14.1916691,5.29683037 15.0063276,5 16.159,5 C17.2596722,5 18.0396644,5.26433069 18.499,5.793 C18.9583356,6.32166931 19.188,7.07132848 19.188,8.042 L19.188,8.952 L16.913,8.952 L16.913,7.899 C16.913,7.49166463 16.8696671,7.17966775 16.783,6.963 C16.6963329,6.74633225 16.488335,6.638 16.159,6.638 C15.829665,6.638 15.6130005,6.75283218 15.509,6.9825 C15.4049995,7.21216782 15.353,7.53066463 15.353,7.938 L15.353,12.891 C15.353,13.3070021 15.4071661,13.6254989 15.5155,13.8465 C15.6238339,14.0675011 15.8383317,14.178 16.159,14.178 C16.4796683,14.178 16.6854995,14.0675011 16.7765,13.8465 C16.8675005,13.6254989 16.913,13.3070021 16.913,12.891 L16.913,11.786 L19.188,11.786 L19.188,12.696 C19.188,13.6840049 18.9583356,14.4531639 18.499,15.0035 C18.0396644,15.5538361 17.2596722,15.829 16.159,15.829 C15.0149943,15.829 14.2025024,15.5278363 13.7215,14.9255 Z" id="C" fill="#000000"></path>
                </g>
                <g id="6st-OpenCE" transform="translate(129.000000, 60.000000)">
                    <path d="M9,10 L0,10" id="Line-Copy-4" stroke="#D5D3D3" stroke-linecap="square"></path>
                    <circle id="6stOVAL-E-Copy" fill="#D5D3D3" cx="19" cy="10" r="10"></circle>
                    <polygon id="E" fill="#000000" points="17 5 21.732 5 21.732 6.586 19.327 6.586 19.327 9.199 21.16 9.199 21.16 10.811 19.327 10.811 19.327 13.957 21.758 13.957 21.758 15.53 17 15.53"></polygon>
                </g>
            </g>
        </g>
    </g>
</svg>