<?xml version="1.0" encoding="UTF-8"?>
<svg width="158px" height="80px" viewBox="0 0 158 80" version="1.1" xmlns="http://www.w3.org/2000/svg" xmlns:xlink="http://www.w3.org/1999/xlink">
    <!-- Generator: Sketch 44.1 (41455) - http://www.bohemiancoding.com/sketch -->
    <title>openg</title>
    <desc>Created with Sketch.</desc>
    <defs></defs>
    <g id="Page-1" stroke="none" stroke-width="1" fill="none" fill-rule="evenodd">
        <g id="Desktop" transform="translate(-917.000000, -245.000000)">
            <g id="openg" transform="translate(917.000000, 245.000000)">
                <g id="Group-3" transform="translate(0.000000, 60.000000)">
                    <path d="M29.5,10.5 L20.5,10.5" id="Line" stroke="#D5D3D3" stroke-linecap="square"></path>
                    <circle id="oneopen-G" fill="#D5D3D3" cx="10" cy="10" r="10"></circle>
                    <path d="M7,5 L9.665,5 C10.5750046,5 11.2856641,5.11266554 11.797,5.338 C12.3083359,5.56333446 12.6701656,5.91649759 12.8825,6.3975 C13.0948344,6.8785024 13.201,7.52199597 13.201,8.328 L13.201,12.15 C13.201,12.9646707 13.0948344,13.6146642 12.8825,14.1 C12.6701656,14.5853358 12.3105025,14.9449988 11.8035,15.179 C11.2964975,15.4130012 10.5923378,15.53 9.691,15.53 L7,15.53 L7,5 Z M9.691,13.918 C10.0290017,13.918 10.2781659,13.8681672 10.4385,13.7685 C10.5988341,13.6688328 10.7006664,13.5258343 10.744,13.3395 C10.7873336,13.1531657 10.809,12.8780018 10.809,12.514 L10.809,7.925 C10.809,7.58699831 10.7851669,7.32916755 10.7375,7.1515 C10.6898331,6.97383244 10.5858341,6.8416671 10.4255,6.755 C10.2651659,6.6683329 10.0160017,6.625 9.678,6.625 L9.327,6.625 L9.327,13.918 L9.691,13.918 Z" id="D" fill="#000000"></path>
                </g>
                <g id="Group-4" transform="translate(0.000000, 30.000000)">
                    <path d="M26.8,10 L20,10" id="Line" stroke="#D5D3D3" stroke-linecap="square"></path>
                    <circle id="twoopen-G" fill="#D5D3D3" cx="10" cy="10" r="10"></circle>
                    <path d="M7.663,14.88 C7.22099779,14.2473302 7,13.3503391 7,12.189 L7,8.653 C7,7.46566073 7.2404976,6.56000312 7.7215,5.936 C8.20250241,5.31199688 9.01499428,5 10.159,5 C11.2596722,5 12.048331,5.26866398 12.525,5.806 C13.0016691,6.34333602 13.24,7.10166177 13.24,8.081 L13.24,8.757 L10.965,8.757 L10.965,7.899 C10.965,7.48299792 10.9173338,7.16883439 10.822,6.9565 C10.7266662,6.7441656 10.514335,6.638 10.185,6.638 C9.84699831,6.638 9.62816717,6.75499883 9.5285,6.989 C9.42883284,7.22300117 9.379,7.54799792 9.379,7.964 L9.379,12.839 C9.379,13.2550021 9.44183271,13.5821655 9.5675,13.8205 C9.6931673,14.0588345 9.92066502,14.178 10.25,14.178 C10.8566697,14.178 11.16,13.7230045 11.16,12.813 L11.16,11.578 L10.211,11.578 L10.211,10.213 L13.253,10.213 L13.253,15.673 L11.719,15.673 L11.589,14.802 C11.259665,15.4866701 10.692004,15.829 9.886,15.829 C8.8459948,15.829 8.10500221,15.5126698 7.663,14.88 Z" id="G" fill="#000000"></path>
                </g>
                <g id="Group-5">
                    <path d="M25.3,10 L20,10" id="Line" stroke="#D5D3D3" stroke-linecap="square"></path>
                    <circle id="threeopen-G" fill="#D5D3D3" cx="10" cy="10" r="10"></circle>
                    <path d="M7,5 L9.665,5 C10.5750046,5 11.2856641,5.11266554 11.797,5.338 C12.3083359,5.56333446 12.6701656,5.9164976 12.8825,6.3975 C13.0948344,6.87850241 13.201,7.52199597 13.201,8.328 L13.201,12.15 C13.201,12.9646707 13.0948344,13.6146642 12.8825,14.1 C12.6701656,14.5853358 12.3105025,14.9449988 11.8035,15.179 C11.2964975,15.4130012 10.5923378,15.53 9.691,15.53 L7,15.53 L7,5 Z M9.691,13.918 C10.0290017,13.918 10.2781659,13.8681672 10.4385,13.7685 C10.5988341,13.6688328 10.7006664,13.5258343 10.744,13.3395 C10.7873336,13.1531657 10.809,12.8780018 10.809,12.514 L10.809,7.925 C10.809,7.58699831 10.7851669,7.32916755 10.7375,7.1515 C10.6898331,6.97383244 10.5858341,6.8416671 10.4255,6.755 C10.2651659,6.6683329 10.0160017,6.625 9.678,6.625 L9.327,6.625 L9.327,13.918 L9.691,13.918 Z" id="D" fill="#000000"></path>
                </g>
                <g id="Group-6" transform="translate(133.000000, 0.000000)">
                    <path d="M5,10 L0,10" id="Line" stroke="#D5D3D3" stroke-linecap="square"></path>
                    <circle id="fouropen-G" fill="#D5D3D3" cx="15" cy="10" r="10"></circle>
                    <path d="M12.663,14.88 C12.2209978,14.2473302 12,13.3503391 12,12.189 L12,8.653 C12,7.46566073 12.2404976,6.56000312 12.7215,5.936 C13.2025024,5.31199688 14.0149943,5 15.159,5 C16.2596722,5 17.048331,5.26866398 17.525,5.806 C18.0016691,6.34333602 18.24,7.10166177 18.24,8.081 L18.24,8.757 L15.965,8.757 L15.965,7.899 C15.965,7.48299792 15.9173338,7.1688344 15.822,6.9565 C15.7266662,6.74416561 15.514335,6.638 15.185,6.638 C14.8469983,6.638 14.6281672,6.75499883 14.5285,6.989 C14.4288328,7.22300117 14.379,7.54799792 14.379,7.964 L14.379,12.839 C14.379,13.2550021 14.4418327,13.5821655 14.5675,13.8205 C14.6931673,14.0588345 14.920665,14.178 15.25,14.178 C15.8566697,14.178 16.16,13.7230045 16.16,12.813 L16.16,11.578 L15.211,11.578 L15.211,10.213 L18.253,10.213 L18.253,15.673 L16.719,15.673 L16.589,14.802 C16.259665,15.4866701 15.692004,15.829 14.886,15.829 C13.8459948,15.829 13.1050022,15.5126698 12.663,14.88 Z" id="G" fill="#000000"></path>
                </g>
                <g id="Group-7" transform="translate(132.000000, 30.000000)">
                    <path d="M6,10 L0,10" id="Line" stroke="#D5D3D3" stroke-linecap="square"></path>
                    <circle id="fiveopen-G" fill="#D5D3D3" cx="16" cy="10" r="10"></circle>
                    <path d="M13,5 L15.743,5 C16.7916719,5 17.6128304,5.18633147 18.2065,5.559 C18.8001696,5.93166853 19.097,6.6379948 19.097,7.678 C19.097,8.95200637 18.5813385,9.68433238 17.55,9.875 C18.1740031,9.95300039 18.6419984,10.2129978 18.954,10.655 C19.2660016,11.0970022 19.422,11.7036628 19.422,12.475 C19.422,14.5116768 18.360344,15.53 16.237,15.53 L13,15.53 L13,5 Z M15.782,9.212 C16.2760025,9.212 16.6118324,9.09933446 16.7895,8.874 C16.9671676,8.64866554 17.056,8.29766905 17.056,7.821 C17.056,7.40499792 16.9433345,7.0908344 16.718,6.8785 C16.4926655,6.6661656 16.1633355,6.56 15.73,6.56 L15.327,6.56 L15.327,9.212 L15.782,9.212 Z M15.821,13.905 C16.3150025,13.905 16.6638323,13.7815012 16.8675,13.5345 C17.0711677,13.2874988 17.173,12.8996693 17.173,12.371 C17.173,11.772997 17.0711677,11.3526679 16.8675,11.11 C16.6638323,10.8673321 16.3106692,10.746 15.808,10.746 L15.327,10.746 L15.327,13.905 L15.821,13.905 Z" id="B" fill="#000000"></path>
                </g>
                <g id="Group-8" transform="translate(129.000000, 60.000000)">
                    <path d="M9,10 L0,10" id="Line" stroke="#D5D3D3" stroke-linecap="square"></path>
                    <circle id="sixopen-G" fill="#D5D3D3" cx="19" cy="10" r="10"></circle>
                    <path d="M16,5 L18.665,5 C19.5750046,5 20.2856641,5.11266554 20.797,5.338 C21.3083359,5.56333446 21.6701656,5.91649759 21.8825,6.3975 C22.0948344,6.8785024 22.201,7.52199597 22.201,8.328 L22.201,12.15 C22.201,12.9646707 22.0948344,13.6146642 21.8825,14.1 C21.6701656,14.5853358 21.3105025,14.9449988 20.8035,15.179 C20.2964975,15.4130012 19.5923378,15.53 18.691,15.53 L16,15.53 L16,5 Z M18.691,13.918 C19.0290017,13.918 19.2781659,13.8681672 19.4385,13.7685 C19.5988341,13.6688328 19.7006664,13.5258343 19.744,13.3395 C19.7873336,13.1531657 19.809,12.8780018 19.809,12.514 L19.809,7.925 C19.809,7.58699831 19.7851669,7.32916755 19.7375,7.1515 C19.6898331,6.97383244 19.5858341,6.8416671 19.4255,6.755 C19.2651659,6.6683329 19.0160017,6.625 18.678,6.625 L18.327,6.625 L18.327,13.918 L18.691,13.918 Z" id="D" fill="#000000"></path>
                </g>
            </g>
        </g>
    </g>
</svg>