<?xml version="1.0" encoding="UTF-8"?>
<svg width="158px" height="80px" viewBox="0 0 158 80" version="1.1" xmlns="http://www.w3.org/2000/svg" xmlns:xlink="http://www.w3.org/1999/xlink">
    <!-- Generator: Sketch 44.1 (41455) - http://www.bohemiancoding.com/sketch -->
    <title>opend</title>
    <desc>Created with Sketch.</desc>
    <defs></defs>
    <g id="Page-1" stroke="none" stroke-width="1" fill="none" fill-rule="evenodd">
        <g id="Desktop" transform="translate(-555.000000, -595.000000)">
            <g id="opend" transform="translate(555.000000, 595.000000)">
                <g id="1st-OpenDD" transform="translate(0.000000, 60.000000)">
                    <path d="M29.5,10.5 L20.5,10.5" id="Lineone" stroke="#D5D3D3" stroke-linecap="square"></path>
                    <circle id="1stOVAL-E" fill="#D5D3D3" cx="10" cy="10" r="10"></circle>
                    <path d="M7,5 L9.665,5 C10.5750046,5 11.2856641,5.11266554 11.797,5.338 C12.3083359,5.56333446 12.6701656,5.9164976 12.8825,6.3975 C13.0948344,6.8785024 13.201,7.52199597 13.201,8.328 L13.201,12.15 C13.201,12.9646707 13.0948344,13.6146642 12.8825,14.1 C12.6701656,14.5853358 12.3105025,14.9449988 11.8035,15.179 C11.2964975,15.4130012 10.5923378,15.53 9.691,15.53 L7,15.53 L7,5 Z M9.691,13.918 C10.0290017,13.918 10.2781659,13.8681672 10.4385,13.7685 C10.5988341,13.6688328 10.7006664,13.5258343 10.744,13.3395 C10.7873335,13.1531657 10.809,12.8780018 10.809,12.514 L10.809,7.925 C10.809,7.58699831 10.7851669,7.32916756 10.7375,7.1515 C10.6898331,6.97383244 10.5858341,6.8416671 10.4255,6.755 C10.2651659,6.6683329 10.0160017,6.625 9.678,6.625 L9.327,6.625 L9.327,13.918 L9.691,13.918 Z" id="D" fill="#000000"></path>
                </g>
                <g id="2st-OpenDA" transform="translate(0.000000, 30.000000)">
                    <path d="M26.8,10 L20,10" id="Line" stroke="#D5D3D3" stroke-linecap="square"></path>
                    <circle id="2stOVAL-A" fill="#D5D3D3" cx="10" cy="10" r="10"></circle>
                    <path d="M8.989,5 L11.641,5 L13.604,15.53 L11.459,15.53 L11.108,13.307 L9.561,13.307 L9.197,15.53 L7,15.53 L8.989,5 Z M10.887,11.916 L10.328,7.808 L9.769,11.916 L10.887,11.916 Z" id="A" fill="#000000"></path>
                </g>
                <g id="3st-OpenDD">
                    <path d="M25.3,10 L20,10" id="Line" stroke="#D5D3D3" stroke-linecap="square"></path>
                    <circle id="3stOVAL-D" fill="#D5D3D3" cx="10" cy="10" r="10"></circle>
                    <path d="M7,5 L9.665,5 C10.5750046,5 11.2856641,5.11266554 11.797,5.338 C12.3083359,5.56333446 12.6701656,5.9164976 12.8825,6.3975 C13.0948344,6.8785024 13.201,7.52199597 13.201,8.328 L13.201,12.15 C13.201,12.9646707 13.0948344,13.6146642 12.8825,14.1 C12.6701656,14.5853358 12.3105025,14.9449988 11.8035,15.179 C11.2964975,15.4130012 10.5923378,15.53 9.691,15.53 L7,15.53 L7,5 Z M9.691,13.918 C10.0290017,13.918 10.2781659,13.8681672 10.4385,13.7685 C10.5988341,13.6688328 10.7006664,13.5258343 10.744,13.3395 C10.7873335,13.1531657 10.809,12.8780018 10.809,12.514 L10.809,7.925 C10.809,7.58699831 10.7851669,7.32916756 10.7375,7.1515 C10.6898331,6.97383244 10.5858341,6.8416671 10.4255,6.755 C10.2651659,6.6683329 10.0160017,6.625 9.678,6.625 L9.327,6.625 L9.327,13.918 L9.691,13.918 Z" id="D" fill="#000000"></path>
                </g>
                <g id="6st-OpenDD" transform="translate(129.000000, 60.000000)">
                    <path d="M9,10 L0,10" id="Line" stroke="#D5D3D3" stroke-linecap="square"></path>
                    <circle id="6stOVAL-E" fill="#D5D3D3" cx="19" cy="10" r="10"></circle>
                    <path d="M16,5 L18.665,5 C19.5750046,5 20.2856641,5.11266554 20.797,5.338 C21.3083359,5.56333446 21.6701656,5.9164976 21.8825,6.3975 C22.0948344,6.8785024 22.201,7.52199597 22.201,8.328 L22.201,12.15 C22.201,12.9646707 22.0948344,13.6146642 21.8825,14.1 C21.6701656,14.5853358 21.3105025,14.9449988 20.8035,15.179 C20.2964975,15.4130012 19.5923378,15.53 18.691,15.53 L16,15.53 L16,5 Z M18.691,13.918 C19.0290017,13.918 19.2781659,13.8681672 19.4385,13.7685 C19.5988341,13.6688328 19.7006664,13.5258343 19.744,13.3395 C19.7873335,13.1531657 19.809,12.8780018 19.809,12.514 L19.809,7.925 C19.809,7.58699831 19.7851669,7.32916756 19.7375,7.1515 C19.6898331,6.97383244 19.5858341,6.8416671 19.4255,6.755 C19.2651659,6.6683329 19.0160017,6.625 18.678,6.625 L18.327,6.625 L18.327,13.918 L18.691,13.918 Z" id="D" fill="#000000"></path>
                </g>
                <g id="4st-OpenDF" transform="translate(133.000000, 0.000000)">
                    <path d="M5,10 L0,10" id="Line" stroke="#D5D3D3" stroke-linecap="square"></path>
                    <circle id="4stOVAL-G" fill="#D5D3D3" cx="15" cy="10" r="10"></circle>
                    <polygon id="F" fill="#000000" points="13 5 17.55 5 17.55 6.573 15.327 6.573 15.327 9.225 17.264 9.225 17.264 10.85 15.327 10.85 15.327 15.53 13 15.53"></polygon>
                    <text id="#" font-family="Oswald-Bold, Oswald" font-size="6" font-weight="bold" fill="#000000">
                        <tspan x="18.796" y="13">#</tspan>
                    </text>
                </g>
                <g id="5st-OpenDA" transform="translate(132.000000, 30.000000)">
                    <circle id="5stOVAL-B" fill="#D5D3D3" cx="16" cy="10" r="10"></circle>
                    <path d="M14.989,5 L17.641,5 L19.604,15.53 L17.459,15.53 L17.108,13.307 L15.561,13.307 L15.197,15.53 L13,15.53 L14.989,5 Z M16.887,11.916 L16.328,7.808 L15.769,11.916 L16.887,11.916 Z" id="A" fill="#000000"></path>
                    <path d="M6,11 L0,11" id="Line" stroke="#D5D3D3" stroke-linecap="square"></path>
                </g>
            </g>
        </g>
    </g>
</svg>